<mxfile host="Electron" agent="Mozilla/5.0 (Windows NT 10.0; Win64; x64) AppleWebKit/537.36 (KHTML, like Gecko) draw.io/24.7.17 Chrome/128.0.6613.36 Electron/32.0.1 Safari/537.36" version="24.7.17">
  <diagram name="페이지-1" id="2hG1okMjOtvaAzbNeR-Z">
    <mxGraphModel dx="1098" dy="854" grid="1" gridSize="10" guides="1" tooltips="1" connect="1" arrows="1" fold="1" page="1" pageScale="1" pageWidth="1169" pageHeight="827" math="0" shadow="0">
      <root>
        <mxCell id="0" />
        <mxCell id="1" parent="0" />
        <mxCell id="3LaHb4LpxNbKLYxc8JNl-5" value="" style="sketch=0;points=[[0,0,0],[0.25,0,0],[0.5,0,0],[0.75,0,0],[1,0,0],[0,1,0],[0.25,1,0],[0.5,1,0],[0.75,1,0],[1,1,0],[0,0.25,0],[0,0.5,0],[0,0.75,0],[1,0.25,0],[1,0.5,0],[1,0.75,0]];outlineConnect=0;fontColor=#232F3E;fillColor=#ED7100;strokeColor=#ffffff;dashed=0;verticalLabelPosition=bottom;verticalAlign=top;align=center;html=1;fontSize=12;fontStyle=1;aspect=fixed;shape=mxgraph.aws4.resourceIcon;resIcon=mxgraph.aws4.ec2;" parent="1" vertex="1">
          <mxGeometry x="821" y="610" width="78" height="78" as="geometry" />
        </mxCell>
        <mxCell id="3LaHb4LpxNbKLYxc8JNl-77" value="HackThisOut Virtual Environment" style="swimlane;whiteSpace=wrap;html=1;align=center;" parent="1" vertex="1">
          <mxGeometry x="180" y="180" width="890" height="570" as="geometry">
            <mxRectangle x="180" y="180" width="170" height="30" as="alternateBounds" />
          </mxGeometry>
        </mxCell>
        <mxCell id="3LaHb4LpxNbKLYxc8JNl-56" value="AWS Cloud" style="points=[[0,0],[0.25,0],[0.5,0],[0.75,0],[1,0],[1,0.25],[1,0.5],[1,0.75],[1,1],[0.75,1],[0.5,1],[0.25,1],[0,1],[0,0.75],[0,0.5],[0,0.25]];outlineConnect=0;gradientColor=none;html=1;whiteSpace=wrap;fontSize=12;fontStyle=1;container=1;pointerEvents=0;collapsible=0;recursiveResize=0;shape=mxgraph.aws4.group;grIcon=mxgraph.aws4.group_aws_cloud_alt;strokeColor=#232F3E;fillColor=none;verticalAlign=top;align=left;spacingLeft=30;fontColor=#232F3E;dashed=0;" parent="3LaHb4LpxNbKLYxc8JNl-77" vertex="1">
          <mxGeometry x="511" y="40" width="369" height="490" as="geometry" />
        </mxCell>
        <mxCell id="3LaHb4LpxNbKLYxc8JNl-60" value="&lt;b&gt;VPN Host&lt;/b&gt;" style="text;html=1;align=center;verticalAlign=middle;whiteSpace=wrap;rounded=0;" parent="3LaHb4LpxNbKLYxc8JNl-56" vertex="1">
          <mxGeometry x="129" y="470" width="81" height="20" as="geometry" />
        </mxCell>
        <mxCell id="lUv1DDebho9h5tD2_DkO-5" value="" style="sketch=0;pointerEvents=1;shadow=0;dashed=0;html=1;strokeColor=none;fillColor=#434445;aspect=fixed;labelPosition=center;verticalLabelPosition=bottom;verticalAlign=top;align=center;outlineConnect=0;shape=mxgraph.vvd.vpn;fontStyle=1" parent="3LaHb4LpxNbKLYxc8JNl-56" vertex="1">
          <mxGeometry x="21" y="301" width="30" height="30" as="geometry" />
        </mxCell>
        <mxCell id="lUv1DDebho9h5tD2_DkO-7" value="" style="sketch=0;pointerEvents=1;shadow=0;dashed=0;html=1;strokeColor=none;fillColor=#434445;aspect=fixed;labelPosition=center;verticalLabelPosition=bottom;verticalAlign=top;align=center;outlineConnect=0;shape=mxgraph.vvd.vpn;fontStyle=1" parent="3LaHb4LpxNbKLYxc8JNl-56" vertex="1">
          <mxGeometry x="139" y="301" width="30" height="30" as="geometry" />
        </mxCell>
        <mxCell id="lUv1DDebho9h5tD2_DkO-35" value="" style="edgeStyle=orthogonalEdgeStyle;rounded=0;orthogonalLoop=1;jettySize=auto;html=1;" parent="3LaHb4LpxNbKLYxc8JNl-56" source="28ll6sZqFDaZWbsDjpcL-3" edge="1">
          <mxGeometry relative="1" as="geometry">
            <mxPoint x="209" y="50" as="targetPoint" />
          </mxGeometry>
        </mxCell>
        <mxCell id="28ll6sZqFDaZWbsDjpcL-3" value="" style="sketch=0;points=[[0,0,0],[0.25,0,0],[0.5,0,0],[0.75,0,0],[1,0,0],[0,1,0],[0.25,1,0],[0.5,1,0],[0.75,1,0],[1,1,0],[0,0.25,0],[0,0.5,0],[0,0.75,0],[1,0.25,0],[1,0.5,0],[1,0.75,0]];outlineConnect=0;fontColor=#232F3E;fillColor=#7AA116;strokeColor=#ffffff;dashed=0;verticalLabelPosition=bottom;verticalAlign=top;align=center;html=1;fontSize=12;fontStyle=1;aspect=fixed;shape=mxgraph.aws4.resourceIcon;resIcon=mxgraph.aws4.s3;" parent="3LaHb4LpxNbKLYxc8JNl-56" vertex="1">
          <mxGeometry x="249" y="11" width="78" height="78" as="geometry" />
        </mxCell>
        <mxCell id="3LaHb4LpxNbKLYxc8JNl-53" value="S3" style="text;html=1;align=center;verticalAlign=middle;whiteSpace=wrap;rounded=0;strokeColor=none;fontStyle=1" parent="3LaHb4LpxNbKLYxc8JNl-56" vertex="1">
          <mxGeometry x="296" y="89" width="31" height="17" as="geometry" />
        </mxCell>
        <mxCell id="lUv1DDebho9h5tD2_DkO-27" value="" style="outlineConnect=0;dashed=0;verticalLabelPosition=bottom;verticalAlign=top;align=center;html=1;shape=mxgraph.aws3.ami;fillColor=#F58534;gradientColor=none;" parent="3LaHb4LpxNbKLYxc8JNl-56" vertex="1">
          <mxGeometry x="131" y="11" width="76" height="78" as="geometry" />
        </mxCell>
        <mxCell id="lUv1DDebho9h5tD2_DkO-29" value="&lt;b&gt;AMI&lt;/b&gt;" style="text;html=1;align=center;verticalAlign=middle;resizable=0;points=[];autosize=1;strokeColor=none;fillColor=none;" parent="3LaHb4LpxNbKLYxc8JNl-56" vertex="1">
          <mxGeometry x="126" y="83" width="50" height="30" as="geometry" />
        </mxCell>
        <mxCell id="3LaHb4LpxNbKLYxc8JNl-73" value="" style="sketch=0;pointerEvents=1;shadow=0;dashed=0;html=1;strokeColor=none;fillColor=#DF8C42;labelPosition=center;verticalLabelPosition=bottom;verticalAlign=top;align=center;outlineConnect=0;shape=mxgraph.veeam2.open_vpn;" parent="3LaHb4LpxNbKLYxc8JNl-56" vertex="1">
          <mxGeometry x="189" y="380" width="34" height="34" as="geometry" />
        </mxCell>
        <mxCell id="lUv1DDebho9h5tD2_DkO-4" value="" style="strokeWidth=2;html=1;shape=mxgraph.flowchart.database;whiteSpace=wrap;" parent="3LaHb4LpxNbKLYxc8JNl-77" vertex="1">
          <mxGeometry x="316" y="44" width="60" height="60" as="geometry" />
        </mxCell>
        <mxCell id="lUv1DDebho9h5tD2_DkO-9" value="" style="endArrow=classic;html=1;rounded=0;entryX=0.15;entryY=1.022;entryDx=0;entryDy=0;entryPerimeter=0;" parent="3LaHb4LpxNbKLYxc8JNl-77" target="lUv1DDebho9h5tD2_DkO-4" edge="1">
          <mxGeometry width="50" height="50" relative="1" as="geometry">
            <mxPoint x="325" y="160" as="sourcePoint" />
            <mxPoint x="290" y="100" as="targetPoint" />
          </mxGeometry>
        </mxCell>
        <mxCell id="lUv1DDebho9h5tD2_DkO-11" value="&lt;div&gt;&lt;b&gt;Store&lt;/b&gt;&lt;/div&gt;&lt;b&gt;Instance Info&lt;/b&gt;" style="text;html=1;align=center;verticalAlign=middle;resizable=0;points=[];autosize=1;strokeColor=none;fillColor=none;" parent="3LaHb4LpxNbKLYxc8JNl-77" vertex="1">
          <mxGeometry x="235" y="107" width="100" height="40" as="geometry" />
        </mxCell>
        <mxCell id="lUv1DDebho9h5tD2_DkO-12" value="&lt;div&gt;&lt;b&gt;Fetch&lt;/b&gt;&lt;/div&gt;&lt;b&gt;Instance Info&lt;/b&gt;" style="text;html=1;align=center;verticalAlign=middle;resizable=0;points=[];autosize=1;strokeColor=none;fillColor=none;" parent="3LaHb4LpxNbKLYxc8JNl-77" vertex="1">
          <mxGeometry x="350" y="108" width="100" height="40" as="geometry" />
        </mxCell>
        <mxCell id="lUv1DDebho9h5tD2_DkO-36" value="&lt;b&gt;Database&lt;/b&gt;" style="text;html=1;align=center;verticalAlign=middle;resizable=0;points=[];autosize=1;strokeColor=none;fillColor=none;" parent="3LaHb4LpxNbKLYxc8JNl-77" vertex="1">
          <mxGeometry x="306" y="70" width="80" height="30" as="geometry" />
        </mxCell>
        <mxCell id="3LaHb4LpxNbKLYxc8JNl-21" value="" style="group;fontStyle=1" parent="1" vertex="1" connectable="0">
          <mxGeometry x="250" y="610" width="80" height="108" as="geometry" />
        </mxCell>
        <mxCell id="3LaHb4LpxNbKLYxc8JNl-16" value="" style="sketch=0;outlineConnect=0;fontColor=#232F3E;gradientColor=none;fillColor=#232F3D;strokeColor=none;dashed=0;verticalLabelPosition=bottom;verticalAlign=top;align=center;html=1;fontSize=12;fontStyle=1;aspect=fixed;pointerEvents=1;shape=mxgraph.aws4.users;" parent="3LaHb4LpxNbKLYxc8JNl-21" vertex="1">
          <mxGeometry width="78" height="78" as="geometry" />
        </mxCell>
        <mxCell id="3LaHb4LpxNbKLYxc8JNl-20" value="&lt;span&gt;&lt;u&gt;Users&lt;/u&gt;&lt;/span&gt;" style="text;html=1;align=center;verticalAlign=middle;whiteSpace=wrap;rounded=0;fontStyle=1" parent="3LaHb4LpxNbKLYxc8JNl-21" vertex="1">
          <mxGeometry y="78" width="80" height="30" as="geometry" />
        </mxCell>
        <mxCell id="3LaHb4LpxNbKLYxc8JNl-22" value="" style="group;fontStyle=1" parent="1" vertex="1" connectable="0">
          <mxGeometry x="250" y="372.5" width="80" height="100" as="geometry" />
        </mxCell>
        <mxCell id="28ll6sZqFDaZWbsDjpcL-4" value="" style="sketch=0;outlineConnect=0;fontColor=#232F3E;gradientColor=none;fillColor=#232F3D;strokeColor=none;dashed=0;verticalLabelPosition=bottom;verticalAlign=top;align=center;html=1;fontSize=12;fontStyle=1;aspect=fixed;pointerEvents=1;shape=mxgraph.aws4.client;" parent="3LaHb4LpxNbKLYxc8JNl-22" vertex="1">
          <mxGeometry width="78" height="76" as="geometry" />
        </mxCell>
        <mxCell id="3LaHb4LpxNbKLYxc8JNl-19" value="Client" style="text;html=1;align=center;verticalAlign=middle;whiteSpace=wrap;rounded=0;fontStyle=1" parent="3LaHb4LpxNbKLYxc8JNl-22" vertex="1">
          <mxGeometry x="-1" y="25" width="80" height="24" as="geometry" />
        </mxCell>
        <mxCell id="3LaHb4LpxNbKLYxc8JNl-23" value="" style="edgeStyle=orthogonalEdgeStyle;html=1;endArrow=block;elbow=vertical;startArrow=none;endFill=1;strokeColor=#545B64;rounded=0;entryX=0;entryY=0.5;entryDx=0;entryDy=0;entryPerimeter=0;fontStyle=1" parent="1" source="3LaHb4LpxNbKLYxc8JNl-16" target="3LaHb4LpxNbKLYxc8JNl-5" edge="1">
          <mxGeometry width="100" relative="1" as="geometry">
            <mxPoint x="471" y="470" as="sourcePoint" />
            <mxPoint x="571" y="470" as="targetPoint" />
          </mxGeometry>
        </mxCell>
        <mxCell id="3LaHb4LpxNbKLYxc8JNl-25" value="" style="sketch=0;pointerEvents=1;shadow=0;dashed=0;html=1;strokeColor=none;fillColor=#434445;aspect=fixed;labelPosition=center;verticalLabelPosition=bottom;verticalAlign=top;align=center;outlineConnect=0;shape=mxgraph.vvd.vpn;fontStyle=1" parent="1" vertex="1">
          <mxGeometry x="548" y="613" width="36" height="36" as="geometry" />
        </mxCell>
        <mxCell id="28ll6sZqFDaZWbsDjpcL-1" value="" style="sketch=0;points=[[0,0,0],[0.25,0,0],[0.5,0,0],[0.75,0,0],[1,0,0],[0,1,0],[0.25,1,0],[0.5,1,0],[0.75,1,0],[1,1,0],[0,0.25,0],[0,0.5,0],[0,0.75,0],[1,0.25,0],[1,0.5,0],[1,0.75,0]];outlineConnect=0;fontColor=#232F3E;fillColor=#ED7100;strokeColor=#ffffff;dashed=0;verticalLabelPosition=bottom;verticalAlign=top;align=center;html=1;fontSize=12;fontStyle=1;aspect=fixed;shape=mxgraph.aws4.resourceIcon;resIcon=mxgraph.aws4.ec2;" parent="1" vertex="1">
          <mxGeometry x="702" y="369" width="78" height="78" as="geometry" />
        </mxCell>
        <mxCell id="28ll6sZqFDaZWbsDjpcL-2" value="" style="sketch=0;points=[[0,0,0],[0.25,0,0],[0.5,0,0],[0.75,0,0],[1,0,0],[0,1,0],[0.25,1,0],[0.5,1,0],[0.75,1,0],[1,1,0],[0,0.25,0],[0,0.5,0],[0,0.75,0],[1,0.25,0],[1,0.5,0],[1,0.75,0]];outlineConnect=0;fontColor=#232F3E;fillColor=#ED7100;strokeColor=#ffffff;dashed=0;verticalLabelPosition=bottom;verticalAlign=top;align=center;html=1;fontSize=12;fontStyle=1;aspect=fixed;shape=mxgraph.aws4.resourceIcon;resIcon=mxgraph.aws4.ec2;opacity=70;" parent="1" vertex="1">
          <mxGeometry x="821" y="369" width="78" height="78" as="geometry" />
        </mxCell>
        <mxCell id="3LaHb4LpxNbKLYxc8JNl-9" value="" style="edgeStyle=orthogonalEdgeStyle;html=1;endArrow=none;elbow=vertical;startArrow=block;startFill=1;strokeColor=#545B64;rounded=0;exitX=0.5;exitY=0;exitDx=0;exitDy=0;exitPerimeter=0;fontStyle=1;entryX=0.5;entryY=1;entryDx=0;entryDy=0;" parent="1" source="3LaHb4LpxNbKLYxc8JNl-5" target="3LaHb4LpxNbKLYxc8JNl-49" edge="1">
          <mxGeometry width="100" relative="1" as="geometry">
            <mxPoint x="711" y="520" as="sourcePoint" />
            <mxPoint x="741" y="500" as="targetPoint" />
            <Array as="points">
              <mxPoint x="860" y="551" />
              <mxPoint x="741" y="551" />
              <mxPoint x="741" y="477" />
            </Array>
          </mxGeometry>
        </mxCell>
        <mxCell id="3LaHb4LpxNbKLYxc8JNl-10" value="" style="edgeStyle=orthogonalEdgeStyle;html=1;endArrow=none;elbow=vertical;startArrow=block;startFill=1;strokeColor=#545B64;rounded=0;exitX=0.5;exitY=0;exitDx=0;exitDy=0;exitPerimeter=0;entryX=0.5;entryY=1;entryDx=0;entryDy=0;fontStyle=1" parent="1" source="3LaHb4LpxNbKLYxc8JNl-5" target="3LaHb4LpxNbKLYxc8JNl-50" edge="1">
          <mxGeometry width="100" relative="1" as="geometry">
            <mxPoint x="701" y="560" as="sourcePoint" />
            <mxPoint x="860" y="510" as="targetPoint" />
          </mxGeometry>
        </mxCell>
        <mxCell id="3LaHb4LpxNbKLYxc8JNl-12" value="" style="edgeStyle=orthogonalEdgeStyle;html=1;endArrow=none;elbow=vertical;startArrow=block;startFill=1;strokeColor=#545B64;rounded=0;exitX=0.5;exitY=0;exitDx=0;exitDy=0;exitPerimeter=0;fontStyle=1;entryX=0.5;entryY=1;entryDx=0;entryDy=0;" parent="1" target="3LaHb4LpxNbKLYxc8JNl-51" edge="1">
          <mxGeometry width="100" relative="1" as="geometry">
            <mxPoint x="860" y="611.0000000000001" as="sourcePoint" />
            <mxPoint x="1010" y="520" as="targetPoint" />
            <Array as="points">
              <mxPoint x="860" y="551" />
              <mxPoint x="981" y="551" />
              <mxPoint x="981" y="477" />
            </Array>
          </mxGeometry>
        </mxCell>
        <mxCell id="3LaHb4LpxNbKLYxc8JNl-11" value="" style="sketch=0;points=[[0,0,0],[0.25,0,0],[0.5,0,0],[0.75,0,0],[1,0,0],[0,1,0],[0.25,1,0],[0.5,1,0],[0.75,1,0],[1,1,0],[0,0.25,0],[0,0.5,0],[0,0.75,0],[1,0.25,0],[1,0.5,0],[1,0.75,0]];outlineConnect=0;fontColor=#232F3E;fillColor=#ED7100;strokeColor=#ffffff;dashed=0;verticalLabelPosition=bottom;verticalAlign=top;align=center;html=1;fontSize=12;fontStyle=1;aspect=fixed;shape=mxgraph.aws4.resourceIcon;resIcon=mxgraph.aws4.ec2;opacity=50;" parent="1" vertex="1">
          <mxGeometry x="942" y="369" width="78" height="78" as="geometry" />
        </mxCell>
        <mxCell id="3LaHb4LpxNbKLYxc8JNl-40" value="" style="group;fontStyle=1" parent="1" vertex="1" connectable="0">
          <mxGeometry x="224.68" y="298" width="231.32" height="30" as="geometry" />
        </mxCell>
        <mxCell id="3LaHb4LpxNbKLYxc8JNl-33" value="" style="edgeStyle=orthogonalEdgeStyle;html=1;endArrow=block;elbow=vertical;startArrow=none;endFill=1;strokeColor=#545B64;rounded=0;fontStyle=1" parent="3LaHb4LpxNbKLYxc8JNl-40" edge="1">
          <mxGeometry width="100" relative="1" as="geometry">
            <mxPoint x="105.32" y="92" as="sourcePoint" />
            <mxPoint x="265.32" y="92" as="targetPoint" />
          </mxGeometry>
        </mxCell>
        <mxCell id="3LaHb4LpxNbKLYxc8JNl-43" value="" style="group;fontStyle=1" parent="1" vertex="1" connectable="0">
          <mxGeometry x="564" y="360" width="110" height="30" as="geometry" />
        </mxCell>
        <mxCell id="3LaHb4LpxNbKLYxc8JNl-35" value="" style="edgeStyle=orthogonalEdgeStyle;html=1;endArrow=block;elbow=vertical;startArrow=none;endFill=1;strokeColor=#545B64;rounded=0;fontStyle=1" parent="3LaHb4LpxNbKLYxc8JNl-43" edge="1">
          <mxGeometry width="100" relative="1" as="geometry">
            <mxPoint y="30" as="sourcePoint" />
            <mxPoint x="110" y="30" as="targetPoint" />
          </mxGeometry>
        </mxCell>
        <mxCell id="3LaHb4LpxNbKLYxc8JNl-39" value="Create&lt;div&gt;EC2 Instance&lt;/div&gt;" style="text;html=1;align=center;verticalAlign=middle;whiteSpace=wrap;rounded=0;fontStyle=1" parent="3LaHb4LpxNbKLYxc8JNl-43" vertex="1">
          <mxGeometry width="110" height="30" as="geometry" />
        </mxCell>
        <mxCell id="3LaHb4LpxNbKLYxc8JNl-46" value="" style="group;fontStyle=1" parent="1" vertex="1" connectable="0">
          <mxGeometry x="331.32" y="414" width="158.68" height="30" as="geometry" />
        </mxCell>
        <mxCell id="3LaHb4LpxNbKLYxc8JNl-47" value="" style="edgeStyle=orthogonalEdgeStyle;html=1;endArrow=none;elbow=vertical;startArrow=block;startFill=1;strokeColor=#545B64;rounded=0;fontStyle=1" parent="3LaHb4LpxNbKLYxc8JNl-46" edge="1">
          <mxGeometry width="100" relative="1" as="geometry">
            <mxPoint as="sourcePoint" />
            <mxPoint x="158.68" as="targetPoint" />
          </mxGeometry>
        </mxCell>
        <mxCell id="3LaHb4LpxNbKLYxc8JNl-48" value="&lt;div&gt;Private IP(VPN)&lt;/div&gt;" style="text;html=1;align=center;verticalAlign=middle;whiteSpace=wrap;rounded=0;fontStyle=1" parent="3LaHb4LpxNbKLYxc8JNl-46" vertex="1">
          <mxGeometry width="158.68" height="30" as="geometry" />
        </mxCell>
        <mxCell id="3LaHb4LpxNbKLYxc8JNl-38" value="&lt;span&gt;Start Machine&lt;/span&gt;" style="text;html=1;align=center;verticalAlign=middle;whiteSpace=wrap;rounded=0;fontStyle=1" parent="1" vertex="1">
          <mxGeometry x="330" y="360" width="150" height="30" as="geometry" />
        </mxCell>
        <mxCell id="3LaHb4LpxNbKLYxc8JNl-29" value="&lt;span&gt;Click&lt;/span&gt;&lt;div&gt;&lt;span&gt;&quot;Start Machine&quot;&lt;/span&gt;&lt;/div&gt;" style="text;html=1;align=center;verticalAlign=middle;whiteSpace=wrap;rounded=0;fontStyle=1" parent="1" vertex="1">
          <mxGeometry x="310" y="500" width="100" height="30" as="geometry" />
        </mxCell>
        <mxCell id="3LaHb4LpxNbKLYxc8JNl-28" value="" style="edgeStyle=orthogonalEdgeStyle;html=1;endArrow=none;elbow=vertical;startArrow=block;startFill=1;strokeColor=#545B64;rounded=0;fontStyle=1" parent="1" edge="1">
          <mxGeometry width="100" relative="1" as="geometry">
            <mxPoint x="309" y="450" as="sourcePoint" />
            <mxPoint x="309" y="600" as="targetPoint" />
            <Array as="points">
              <mxPoint x="309" y="590" />
            </Array>
          </mxGeometry>
        </mxCell>
        <mxCell id="3LaHb4LpxNbKLYxc8JNl-30" value="&lt;span&gt;Show&amp;nbsp;&lt;/span&gt;&lt;div&gt;&lt;span&gt;Private IP&lt;/span&gt;&lt;/div&gt;&lt;div&gt;&lt;span&gt;(VPN)&lt;/span&gt;&lt;/div&gt;" style="text;html=1;align=center;verticalAlign=middle;whiteSpace=wrap;rounded=0;fontStyle=1" parent="1" vertex="1">
          <mxGeometry x="210" y="470" width="60" height="30" as="geometry" />
        </mxCell>
        <mxCell id="3LaHb4LpxNbKLYxc8JNl-31" value="" style="edgeStyle=orthogonalEdgeStyle;html=1;endArrow=none;elbow=vertical;startArrow=block;startFill=1;strokeColor=#545B64;rounded=0;fontStyle=1" parent="1" edge="1">
          <mxGeometry width="100" relative="1" as="geometry">
            <mxPoint x="269" y="600" as="sourcePoint" />
            <mxPoint x="270" y="450" as="targetPoint" />
            <Array as="points" />
          </mxGeometry>
        </mxCell>
        <mxCell id="3LaHb4LpxNbKLYxc8JNl-49" value="Target 1" style="text;html=1;align=center;verticalAlign=middle;whiteSpace=wrap;rounded=0;fontStyle=1" parent="1" vertex="1">
          <mxGeometry x="701" y="447" width="79" height="30" as="geometry" />
        </mxCell>
        <mxCell id="3LaHb4LpxNbKLYxc8JNl-50" value="Target 2" style="text;html=1;align=center;verticalAlign=middle;whiteSpace=wrap;rounded=0;fontStyle=1" parent="1" vertex="1">
          <mxGeometry x="820" y="447" width="79" height="30" as="geometry" />
        </mxCell>
        <mxCell id="3LaHb4LpxNbKLYxc8JNl-51" value="Target 3" style="text;html=1;align=center;verticalAlign=middle;whiteSpace=wrap;rounded=0;fontStyle=1" parent="1" vertex="1">
          <mxGeometry x="941" y="447" width="79" height="30" as="geometry" />
        </mxCell>
        <mxCell id="3LaHb4LpxNbKLYxc8JNl-52" value="EC2" style="text;html=1;align=center;verticalAlign=middle;whiteSpace=wrap;rounded=0;strokeColor=none;fontStyle=1" parent="1" vertex="1">
          <mxGeometry x="704.5" y="349" width="70" height="20" as="geometry" />
        </mxCell>
        <mxCell id="3LaHb4LpxNbKLYxc8JNl-62" value="&lt;b&gt;VPN&lt;/b&gt;&lt;div&gt;&lt;b&gt;Profile&lt;/b&gt;&lt;/div&gt;" style="text;html=1;align=center;verticalAlign=middle;whiteSpace=wrap;rounded=0;" parent="1" vertex="1">
          <mxGeometry x="210" y="530" width="60" height="30" as="geometry" />
        </mxCell>
        <mxCell id="3LaHb4LpxNbKLYxc8JNl-64" value="&lt;b&gt;Download&lt;/b&gt;&lt;div&gt;&lt;b&gt;VPN Profile&lt;/b&gt;&lt;/div&gt;" style="text;html=1;align=center;verticalAlign=middle;whiteSpace=wrap;rounded=0;" parent="1" vertex="1">
          <mxGeometry x="320" y="560" width="80" height="30" as="geometry" />
        </mxCell>
        <mxCell id="3LaHb4LpxNbKLYxc8JNl-67" value="1" style="ellipse;whiteSpace=wrap;html=1;aspect=fixed;rotation=0;gradientColor=#223548;strokeColor=none;gradientDirection=east;fillColor=#5b738b;rounded=0;pointerEvents=0;fontFamily=Helvetica;fontSize=16;fontColor=#FFFFFF;spacingTop=4;spacingBottom=4;spacingLeft=4;spacingRight=4;points=[];fontStyle=1" parent="1" vertex="1">
          <mxGeometry x="310" y="550" width="20" height="20" as="geometry" />
        </mxCell>
        <mxCell id="3LaHb4LpxNbKLYxc8JNl-68" value="2" style="ellipse;whiteSpace=wrap;html=1;aspect=fixed;rotation=0;gradientColor=#223548;strokeColor=none;gradientDirection=east;fillColor=#5b738b;rounded=0;pointerEvents=0;fontFamily=Helvetica;fontSize=16;fontColor=#FFFFFF;spacingTop=4;spacingBottom=4;spacingLeft=4;spacingRight=4;points=[];fontStyle=1" parent="1" vertex="1">
          <mxGeometry x="204.68" y="520" width="20" height="20" as="geometry" />
        </mxCell>
        <mxCell id="3LaHb4LpxNbKLYxc8JNl-69" value="3" style="ellipse;whiteSpace=wrap;html=1;aspect=fixed;rotation=0;gradientColor=#223548;strokeColor=none;gradientDirection=east;fillColor=#5b738b;rounded=0;pointerEvents=0;fontFamily=Helvetica;fontSize=16;fontColor=#FFFFFF;spacingTop=4;spacingBottom=4;spacingLeft=4;spacingRight=4;points=[];fontStyle=1" parent="1" vertex="1">
          <mxGeometry x="310" y="490" width="20" height="20" as="geometry" />
        </mxCell>
        <mxCell id="3LaHb4LpxNbKLYxc8JNl-71" value="4" style="ellipse;whiteSpace=wrap;html=1;aspect=fixed;rotation=0;gradientColor=#223548;strokeColor=none;gradientDirection=east;fillColor=#5b738b;rounded=0;pointerEvents=0;fontFamily=Helvetica;fontSize=16;fontColor=#FFFFFF;spacingTop=4;spacingBottom=4;spacingLeft=4;spacingRight=4;points=[];fontStyle=1;align=center;verticalAlign=middle;" parent="1" vertex="1">
          <mxGeometry x="200" y="450" width="20" height="20" as="geometry" />
        </mxCell>
        <mxCell id="3LaHb4LpxNbKLYxc8JNl-74" value="&lt;b&gt;Connect to VPN&lt;/b&gt;" style="text;html=1;align=center;verticalAlign=middle;whiteSpace=wrap;rounded=0;" parent="1" vertex="1">
          <mxGeometry x="516.5" y="649" width="99" height="30" as="geometry" />
        </mxCell>
        <mxCell id="lUv1DDebho9h5tD2_DkO-8" value="" style="sketch=0;pointerEvents=1;shadow=0;dashed=0;html=1;strokeColor=none;fillColor=#434445;aspect=fixed;labelPosition=center;verticalLabelPosition=bottom;verticalAlign=top;align=center;outlineConnect=0;shape=mxgraph.vvd.vpn;fontStyle=1" parent="1" vertex="1">
          <mxGeometry x="952" y="521" width="30" height="30" as="geometry" />
        </mxCell>
        <mxCell id="lUv1DDebho9h5tD2_DkO-10" value="" style="endArrow=classic;html=1;rounded=0;exitX=0.719;exitY=1.022;exitDx=0;exitDy=0;exitPerimeter=0;" parent="1" source="lUv1DDebho9h5tD2_DkO-4" edge="1">
          <mxGeometry width="50" height="50" relative="1" as="geometry">
            <mxPoint x="530" y="310" as="sourcePoint" />
            <mxPoint x="540" y="340" as="targetPoint" />
          </mxGeometry>
        </mxCell>
        <mxCell id="lUv1DDebho9h5tD2_DkO-30" value="" style="edgeStyle=orthogonalEdgeStyle;rounded=0;orthogonalLoop=1;jettySize=auto;html=1;exitX=0.5;exitY=1;exitDx=0;exitDy=0;exitPerimeter=0;" parent="1" source="lUv1DDebho9h5tD2_DkO-27" target="3LaHb4LpxNbKLYxc8JNl-52" edge="1">
          <mxGeometry relative="1" as="geometry">
            <mxPoint x="860" y="370" as="targetPoint" />
          </mxGeometry>
        </mxCell>
        <mxCell id="lUv1DDebho9h5tD2_DkO-32" value="" style="edgeStyle=orthogonalEdgeStyle;rounded=0;orthogonalLoop=1;jettySize=auto;html=1;exitX=0.5;exitY=1;exitDx=0;exitDy=0;exitPerimeter=0;entryX=0.5;entryY=0;entryDx=0;entryDy=0;entryPerimeter=0;" parent="1" edge="1">
          <mxGeometry relative="1" as="geometry">
            <mxPoint x="859.9999999999998" y="308" as="sourcePoint" />
            <mxPoint x="981" y="368" as="targetPoint" />
            <Array as="points">
              <mxPoint x="860" y="329" />
              <mxPoint x="981" y="329" />
            </Array>
          </mxGeometry>
        </mxCell>
        <mxCell id="lUv1DDebho9h5tD2_DkO-34" value="" style="edgeStyle=orthogonalEdgeStyle;rounded=0;orthogonalLoop=1;jettySize=auto;html=1;" parent="1" source="lUv1DDebho9h5tD2_DkO-27" target="28ll6sZqFDaZWbsDjpcL-2" edge="1">
          <mxGeometry relative="1" as="geometry" />
        </mxCell>
        <mxCell id="3LaHb4LpxNbKLYxc8JNl-37" value="" style="edgeStyle=orthogonalEdgeStyle;html=1;endArrow=none;elbow=vertical;startArrow=block;startFill=1;strokeColor=#545B64;rounded=0;fontStyle=1" parent="1" edge="1">
          <mxGeometry width="100" relative="1" as="geometry">
            <mxPoint x="564" y="420" as="sourcePoint" />
            <mxPoint x="674" y="420" as="targetPoint" />
          </mxGeometry>
        </mxCell>
        <mxCell id="3LaHb4LpxNbKLYxc8JNl-44" value="Instance Info&lt;div&gt;Private IP(VPN)&lt;/div&gt;&lt;div&gt;VPN Profile&lt;/div&gt;" style="text;html=1;align=center;verticalAlign=middle;whiteSpace=wrap;rounded=0;fontStyle=1" parent="1" vertex="1">
          <mxGeometry x="564" y="427" width="110" height="30" as="geometry" />
        </mxCell>
        <mxCell id="3LaHb4LpxNbKLYxc8JNl-1" value="" style="sketch=0;outlineConnect=0;fontColor=#232F3E;gradientColor=none;fillColor=#232F3D;strokeColor=none;dashed=0;verticalLabelPosition=bottom;verticalAlign=top;align=center;html=1;fontSize=12;fontStyle=1;aspect=fixed;pointerEvents=1;shape=mxgraph.aws4.traditional_server;" parent="1" vertex="1">
          <mxGeometry x="493" y="350" width="63.69" height="110.4" as="geometry" />
        </mxCell>
        <mxCell id="3LaHb4LpxNbKLYxc8JNl-17" value="Service" style="text;html=1;align=center;verticalAlign=middle;whiteSpace=wrap;rounded=0;fontStyle=1" parent="1" vertex="1">
          <mxGeometry x="491.73" y="431.5" width="66" height="30" as="geometry" />
        </mxCell>
      </root>
    </mxGraphModel>
  </diagram>
</mxfile>
